<?xml version="1.0" encoding="utf-8"?>
<!-- Generator: Adobe Illustrator 17.0.0, SVG Export Plug-In . SVG Version: 6.00 Build 0)  -->
<!DOCTYPE svg PUBLIC "-//W3C//DTD SVG 1.1//EN" "http://www.w3.org/Graphics/SVG/1.1/DTD/svg11.dtd">
<svg version="1.1" id="Layer_1" xmlns="http://www.w3.org/2000/svg" xmlns:xlink="http://www.w3.org/1999/xlink" x="0px" y="0px"
	 width="475.149px" height="116.246px" viewBox="0 0 475.149 116.246" enable-background="new 0 0 475.149 116.246"
	 xml:space="preserve">
<g>
	<defs>
		<path id="SVGID_1_" d="M83.1,53.799l-8.869,5.292c0.786,1.246,1.247,2.717,1.247,4.298c0,0.853-0.134,1.676-0.38,2.448
			l17.743,9.959l23.792-14.022L92.562,48.177L83.1,53.799z"/>
	</defs>
	<clipPath id="SVGID_2_">
		<use xlink:href="#SVGID_1_"  overflow="visible"/>
	</clipPath>
	
		<linearGradient id="SVGID_3_" gradientUnits="userSpaceOnUse" x1="0" y1="116.2777" x2="1" y2="116.2777" gradientTransform="matrix(36.4423 20.1172 20.1172 -36.4423 -2264.0371 4288.2178)">
		<stop  offset="0" style="stop-color:#007416"/>
		<stop  offset="0.6046" style="stop-color:#219934"/>
		<stop  offset="1" style="stop-color:#38B349"/>
	</linearGradient>
	<polygon clip-path="url(#SVGID_2_)" fill="url(#SVGID_3_)" points="84.134,30.237 128.318,54.628 106.729,93.736 62.545,69.345 	
		"/>
</g>
<path fill="#38B349" d="M74.222,59.075L83.1,53.8l9.445-5.636L92.339,0.001L68.697,14.194l0.092,41.242
	C71.074,55.833,73.027,57.188,74.222,59.075"/>
<path fill="#38B349" d="M74.231,59.091l8.868-5.291l-8.878,5.275C74.225,59.08,74.228,59.086,74.231,59.091"/>
<rect fill="none" width="475.149" height="116.246"/>
<g>
	<defs>
		<path id="SVGID_4_" d="M43.787,79.116l0.386,27.613l23.74-14.167L67.72,81.564l-0.197-10.1c-0.042,0.001-0.083,0.006-0.127,0.006
			c-2.462,0-4.662-1.104-6.145-2.841L43.787,79.116z"/>
	</defs>
	<clipPath id="SVGID_5_">
		<use xlink:href="#SVGID_4_"  overflow="visible"/>
	</clipPath>
	
		<linearGradient id="SVGID_6_" gradientUnits="userSpaceOnUse" x1="0" y1="116.2837" x2="1" y2="116.2837" gradientTransform="matrix(-35.5342 21.6902 21.6902 35.5342 -2447.8113 -4055.7009)">
		<stop  offset="0" style="stop-color:#007416"/>
		<stop  offset="0.6046" style="stop-color:#219934"/>
		<stop  offset="1" style="stop-color:#38B349"/>
	</linearGradient>
	<polygon clip-path="url(#SVGID_5_)" fill="url(#SVGID_6_)" points="84.856,96.387 50.336,117.458 26.844,78.971 61.364,57.9 	"/>
</g>
<path fill="#38B349" d="M73.672,68.476c-1.453,1.79-3.655,2.943-6.13,2.987l0.177,10.101l0.213,10.989l41.934,23.693l-0.609-27.568
	L73.672,68.476z"/>
<polygon fill="#38B349" points="67.524,71.123 67.72,81.223 67.542,71.123 "/>
<rect fill="none" width="475.149" height="116.246"/>
<g>
	<defs>
		<path id="SVGID_7_" d="M41.611,49.183l9.595,5.381l9.046,5.051c1.092-2.061,3.047-3.59,5.384-4.109l-0.247-20.373L41.35,21.539
			L41.611,49.183z"/>
	</defs>
	<clipPath id="SVGID_8_">
		<use xlink:href="#SVGID_7_"  overflow="visible"/>
	</clipPath>
	
		<linearGradient id="SVGID_9_" gradientUnits="userSpaceOnUse" x1="0" y1="116.2454" x2="1" y2="116.2454" gradientTransform="matrix(-0.7991 -41.6186 -41.6186 0.7991 4891.8931 -29.9623)">
		<stop  offset="0" style="stop-color:#007416"/>
		<stop  offset="0.6046" style="stop-color:#219934"/>
		<stop  offset="1" style="stop-color:#38B349"/>
	</linearGradient>
	<polygon clip-path="url(#SVGID_8_)" fill="url(#SVGID_9_)" points="41.359,60.081 40.619,21.553 65.627,21.073 66.367,59.601 	"/>
</g>
<path fill="#38B349" d="M60.244,59.633l-9.038-5.068l-9.599-5.359L0,73.465l24.112,13.378l35.69-20.712
	c-0.31-0.858-0.487-1.778-0.487-2.743C59.315,62.032,59.653,60.756,60.244,59.633"/>
<path fill="#38B349" d="M60.253,59.615l-9.047-5.051l9.039,5.068C60.248,59.627,60.25,59.621,60.253,59.615"/>
<path fill="#676767" d="M150.567,62.578c0-0.773,0.618-1.469,1.468-1.469h5.101c0.773,0,1.468,0.696,1.468,1.469v45.443h20.944
	c0.85,0,1.468,0.696,1.468,1.468v4.251c0,0.773-0.618,1.468-1.468,1.468h-27.513c-0.85,0-1.468-0.695-1.468-1.468V62.578z"/>
<path fill="#676767" d="M222.664,60.337c15.457,0,27.822,12.443,27.822,27.9c0,15.456-12.365,27.745-27.822,27.745
	s-27.745-12.289-27.745-27.745C194.919,72.78,207.207,60.337,222.664,60.337 M222.664,108.253c11.051,0,20.094-8.965,20.094-20.016
	c0-10.975-9.043-20.171-20.094-20.171c-10.974,0-20.017,9.196-20.017,20.171C202.647,99.288,211.69,108.253,222.664,108.253"/>
<path fill="#676767" d="M268.715,62.578c0-0.773,0.696-1.469,1.468-1.469h5.101c0.85,0,1.468,0.696,1.468,1.469V84.14h28.286V62.578
	c0-0.773,0.618-1.469,1.469-1.469h5.1c0.773,0,1.468,0.696,1.468,1.469v51.162c0,0.773-0.695,1.468-1.468,1.468h-5.1
	c-0.851,0-1.469-0.695-1.469-1.468V91.405h-28.286v22.335c0,0.773-0.618,1.468-1.468,1.468h-5.101c-0.772,0-1.468-0.695-1.468-1.468
	V62.578z"/>
<path fill="#676767" d="M338.338,62.578c0-0.773,0.696-1.469,1.468-1.469h5.101c0.773,0,1.468,0.696,1.468,1.469v51.162
	c0,0.773-0.695,1.468-1.468,1.468h-5.101c-0.772,0-1.468-0.695-1.468-1.468V62.578z"/>
<path fill="#676767" d="M371.639,62.965c0-1.005,0.772-1.855,1.855-1.855h4.482c1.005,0,1.855,0.85,1.855,1.855v21.408l21.794-22.49
	c0.309-0.387,0.85-0.773,1.468-0.773h5.797c1.391,0,2.163,1.623,1.082,2.782l-22.336,22.722l23.649,26.044
	c0.619,0.773,0.232,2.551-1.391,2.551h-6.182c-0.774,0-1.237-0.309-1.392-0.541l-22.489-25.349v24.035
	c0,1.005-0.85,1.855-1.855,1.855h-4.482c-1.083,0-1.855-0.85-1.855-1.855V62.965z"/>
<path fill="#676767" d="M424.296,113.199l23.726-52.012c0.232-0.464,0.927-0.85,1.314-0.85h0.773c0.386,0,1.081,0.386,1.313,0.85
	l23.572,52.012c0.464,1.005-0.154,2.01-1.314,2.01h-4.869c-0.927,0-1.468-0.464-1.777-1.159l-4.792-10.589H436.97
	c-1.545,3.555-3.168,7.033-4.714,10.589c-0.232,0.541-0.85,1.159-1.777,1.159h-4.87C424.45,115.209,423.832,114.204,424.296,113.199
	 M459.305,96.815l-9.506-21.176h-0.386l-9.429,21.176H459.305z"/>
<rect fill="none" width="475.149" height="116.246"/>
</svg>
