<?xml version="1.0" ?><svg id="Layer_1" style="enable-background:new 0 0 96 96;" version="1.1" viewBox="0 0 96 96" xml:space="preserve" xmlns="http://www.w3.org/2000/svg" xmlns:xlink="http://www.w3.org/1999/xlink"><style type="text/css">
    .st0{fill:none;stroke:#000000;stroke-width:4;stroke-miterlimit:10;}
</style><g><path d="M87,9v67.4L48.8,86.6c-0.1,0-0.4,0.1-0.8,0.1s-0.8,0-0.8-0.1L9,76.4V9h36.6h4.9H87 M90.6,3H50.4c-1.3,0-3.6,0-4.9,0H5.4   C4.1,3,3,4.1,3,5.4v73.1c0,1.3,1.1,2.7,2.4,3.1l40.3,10.7c0.7,0.2,1.5,0.3,2.4,0.3s1.7-0.1,2.4-0.3l40.3-10.7   c1.3-0.3,2.4-1.7,2.4-3.1V5.4C93,4.1,91.9,3,90.6,3L90.6,3z"/></g><line class="st0" x1="3" x2="93" y1="18" y2="18"/><g><path class="st0" d="M4,70l41.4,11.3c1.4,0.4,3.7,0.4,5.1,0L92,70"/></g><g><path d="M29.5,55.7l3.7-2.7c0.9,1.6,2.2,2.3,3.4,2.3c2,0,3-1,3-4.1V36h5.5v15.7c0,4.6-2.4,8.3-7.8,8.3C33.7,60,31.2,58.6,29.5,55.7   z"/><path d="M48,56.7l3.2-3.6c1.8,1.4,4.1,2.4,6.1,2.4c2.3,0,3.5-0.9,3.5-2.2c0-1.5-1.4-1.9-3.6-2.8L54,49.2c-2.5-1-5-2.9-5-6.3   c0-3.8,3.6-6.9,8.8-6.9c2.8,0,5.9,1.1,8,3.1l-2.8,3.3c-1.6-1.2-3.2-1.8-5.1-1.8c-1.9,0-3.2,0.8-3.2,2.1c0,1.4,1.6,1.9,3.8,2.7   l3.2,1.2c3,1.1,4.9,3,4.9,6.3c0,3.8-3.4,7.2-9.3,7.2C53.9,60,50.5,58.9,48,56.7z"/></g></svg>