<?xml version="1.0" encoding="utf-8"?>
<!DOCTYPE svg PUBLIC "-//W3C//DTD SVG 1.1//EN" "http://www.w3.org/Graphics/SVG/1.1/DTD/svg11.dtd">
<svg version="1.1" id="Home" xmlns="http://www.w3.org/2000/svg" xmlns:xlink="http://www.w3.org/1999/xlink" x="0px" y="0px" viewBox="0 0 512 512" enable-background="new 0 0 512 512" xml:space="preserve">
    <path d="M469.8 87.3C414.3 9 161-18 44.2 183.3c-42.7 85-54.7 188 63.7 262 77 41.6 137 49 207 32 58.2-14 109-63.5 134-99-51 35.7-136.6 126-290 37.7-74.8-54-89.6-132-54-210C168 79 345-2 469 86"/>
    <path d="M263 244.7c2-2.6 57 5 141.4 25 69.7 17 71 32.7 71.7 31.5 21-25.4 20-52 18-55.8-247.2-1.5 5-.7-231-2M260 412l16.4 2 7.4-46.5-5.8-2-18 46.6zm-139-92.6l5.4 12.2 52.2-22-2-5.2-55.6 15zM175.6 145l-9.6 10.7 48.3 24.5 2.6-3.4-42-31.8zM353 74.7L336.4 73l-5.7 47 5.8 1.6 16.3-47z"/>
</svg>
