<?xml version="1.0" ?><!DOCTYPE svg  PUBLIC '-//W3C//DTD SVG 1.1//EN'  'http://www.w3.org/Graphics/SVG/1.1/DTD/svg11.dtd'><svg enable-background="new 0 0 1024 1024" height="1024px" id="Layer_1" version="1.1" viewBox="0 0 1024 1024" width="1024px" xml:space="preserve" xmlns="http://www.w3.org/2000/svg" xmlns:xlink="http://www.w3.org/1999/xlink"><g><g><path clip-rule="evenodd" d="M545.909,0c18.073,2.476,36.262,4.312,54.202,7.531     c141.18,25.331,250.931,98.959,331.68,216.833c6.204,9.06,11.837,18.513,17.679,27.82c0.475,0.76,0.488,1.809,0.992,3.836     c-4.021,0-7.543,0-11.064,0c-142.306,0-284.61,0.02-426.915-0.012c-41.051-0.008-81.358,4.891-118.604,23.084     C327.332,311.6,283.292,364.12,259.94,434.227c-1.235,3.707-2.441,7.426-4.147,12.622c-2.513-3.855-4.319-6.422-5.919-9.114     c-45.779-76.995-91.416-154.075-137.499-230.888c-4.224-7.044-3.526-11.292,1.341-17.268     C193.547,91.578,295.928,31.637,419.782,8.11C438.981,4.46,458.531,2.655,477.919,0C500.583,0,523.245,0,545.909,0z" fill-rule="evenodd"/><path clip-rule="evenodd" d="M0,478.039c2.654-20.412,4.738-40.917,8.076-61.218     c9.199-55.964,27.329-108.908,55.396-159.753c1.99,2.71,3.645,4.553,4.845,6.655c68.16,119.425,137.138,238.395,203.98,358.555     c26.098,46.916,58.52,86.551,104.645,114.066c62.189,37.098,128.273,48.205,198.609,27.459c1.898-0.561,3.832-1.016,5.764-1.455     c0.25-0.059,0.586,0.256,1.525,0.711c-1.496,2.801-2.904,5.637-4.484,8.371c-45.777,79.299-91.639,158.549-137.23,237.953     c-3.601,6.27-6.674,8.604-14.6,7.303C217.113,982.34,46.968,816.799,8.607,609.229c-3.261-17.646-4.55-35.656-6.826-53.488     c-0.416-3.254-1.179-6.465-1.781-9.695C0,523.377,0,500.707,0,478.039z" fill-rule="evenodd"/><path clip-rule="evenodd" d="M518.34,1023.977c2.472-4.557,3.964-7.479,5.608-10.312     c66.791-115.201,133.282-230.578,200.617-345.461c16.907-28.848,33.441-57.529,41.312-90.35     c22.044-91.905-2.348-171.698-63.14-241.977c-2.18-2.517-4.488-4.924-6.736-7.383c-2.018-2.205-4.037-4.41-6.957-7.6     c3.314-0.355,5.699-0.834,8.08-0.834c93.295-0.039,186.59,0.072,279.883-0.242c7.101-0.023,9.772,2.796,12.259,8.558     c21.812,50.524,31.407,103.688,34.099,158.268c10.532,213.575-110.728,409.954-306.481,496.397     c-60.503,26.717-124.179,39.08-190.074,40.93C524.519,1024.033,522.224,1023.977,518.34,1023.977z" fill-rule="evenodd"/><path clip-rule="evenodd" d="M512.543,320.033c105.829,0.227,191.576,86.56,191.33,192.64     c-0.244,105.825-86.61,191.633-192.621,191.375c-105.845-0.258-191.537-86.562-191.299-192.669     C320.191,405.489,406.43,319.807,512.543,320.033z" fill-rule="evenodd"/></g></g></svg>