<?xml version="1.0" ?>
<!DOCTYPE svg  PUBLIC '-//W3C//DTD SVG 1.1//EN'  'http://www.w3.org/Graphics/SVG/1.1/DTD/svg11.dtd'>
<svg enable-background="new 0 0 512 512" height="512px" id="Layer_1" version="1.1" viewBox="0 0 512 512" width="512px" xml:space="preserve" xmlns="http://www.w3.org/2000/svg" xmlns:xlink="http://www.w3.org/1999/xlink">
<path d="M509.527,136.261c-0.668-1.112-11.768-20.487-34.067-40.37c-22.158-19.783-56.499-40.416-101.748-40.416  c-45.251-0.014-79.253,20.697-100.965,40.566c-6.72,6.137-12.376,12.224-17.01,17.741c-4.793-5.552-10.652-11.696-17.593-17.892  c-22.156-19.783-56.496-40.416-101.746-40.416C91.148,55.461,57.135,76.172,35.43,96.041C13.572,116.007,2.94,135.435,2.284,136.59  L0,145.541v292.208l35.011,8.938l0.061,0.036c0.49-0.936,9.892-17.138,27.166-32.33c17.413-15.264,41.704-29.311,74.161-29.334  c33.489,0,58.953,15.06,76.904,30.955c8.904,7.924,15.708,15.93,20.18,21.855c2.237,2.953,3.891,5.386,4.946,7.011  c0.452,0.687,0.768,1.191,1.001,1.568c3.114,5.984,9.358,10.076,16.567,10.076c7.342,0,13.678-4.247,16.731-10.404  c1.832-3.123,11.029-17.829,26.833-31.729c17.402-15.264,41.695-29.312,74.15-29.335c33.489,0,58.952,15.061,76.915,30.956  c8.895,7.924,15.701,15.93,20.172,21.855c2.242,2.952,3.896,5.386,4.955,7.011c0.522,0.804,0.901,1.423,1.128,1.793  c0.116,0.187,0.186,0.306,0.222,0.374l0.05-0.027L512,437.747V145.541L509.527,136.261z M237.317,387.396  c-22.178-19.572-56.213-39.708-100.919-39.708h-0.053c-43.907,0-77.223,19.513-98.98,38.822V150.784  c3.798-5.817,12.226-17.479,24.872-28.602c17.413-15.277,41.704-29.322,74.161-29.335c33.489,0,58.953,15.052,76.904,30.958  c8.904,7.913,15.708,15.929,20.18,21.852c1.575,2.08,2.841,3.882,3.835,5.341V387.396z M474.627,387.372  c-22.176-19.563-56.223-39.685-100.916-39.685c-43.948-0.013-77.256,19.525-99.028,38.85v-235.75  c3.798-5.811,12.213-17.462,24.876-28.604c17.404-15.277,41.697-29.322,74.152-29.335c33.489,0,58.95,15.052,76.915,30.958  c8.893,7.913,15.701,15.929,20.17,21.852c1.564,2.062,2.845,3.871,3.831,5.325V387.372z M59.727,168.702l15.334,20.114l1.998,2.81  c0.952-0.636,21.153-14.908,61.945-14.932c21.787,0,37.964,4.09,48.562,8.005c5.299,1.958,9.19,3.886,11.644,5.234  c1.235,0.686,2.103,1.22,2.616,1.542c0.243,0.15,0.4,0.259,0.48,0.313c0.006,0.009,0.013,0.011,0.019,0.016l0.029,0.022l4.602-6.536  l12.203-16.785c-1.699-1.265-29.246-20.567-80.155-20.559C88.095,147.919,61.49,167.294,59.727,168.702 M77.062,253.777  c0.944-0.635,21.15-14.905,61.938-14.93c21.788,0.012,37.972,4.099,48.566,8.014c5.292,1.949,9.184,3.884,11.642,5.236  c1.239,0.674,2.109,1.209,2.613,1.528c0.253,0.164,0.417,0.277,0.49,0.327c0.023,0.017,0.036,0.025,0.04,0.025l4.507-6.396  l12.298-16.912v-0.01c-1.702-1.271-29.244-20.567-80.155-20.55c-50.909-0.036-77.507,19.347-79.273,20.745l17.421,22.859  l-2.107-2.758L77.062,253.777z M59.725,293.005l15.896,20.867l-0.57-0.739l2.008,2.8l0.089-0.057  c1.733-1.172,21.938-14.845,61.856-14.869c21.788,0,37.966,4.086,48.561,8.01c5.294,1.957,9.185,3.874,11.647,5.232  c1.232,0.675,2.104,1.213,2.611,1.531c0.243,0.157,0.402,0.27,0.482,0.319c0.006,0.007,0.013,0.01,0.019,0.012l0.029,0.025  l4.649-6.598l12.156-16.723c-1.706-1.272-29.245-20.571-80.154-20.556C88.088,272.235,61.495,291.6,59.725,293.005 M441.248,191.826  l4.762-6.753l-4.854,6.678l-0.005,0.005C441.21,191.797,441.241,191.82,441.248,191.826 M313.948,188.809l2.016,2.813l0.003,0.004  c0.941-0.636,21.151-14.908,61.942-14.932c21.786,0,37.967,4.09,48.561,8.005c5.293,1.958,9.183,3.886,11.645,5.234  c1.229,0.686,2.105,1.22,2.61,1.542c0.201,0.116,0.343,0.217,0.433,0.275l16.9-23.246c-1.699-1.265-29.238-20.567-80.146-20.559  c-50.916-0.027-77.514,19.348-79.284,20.756l17.423,22.856L313.948,188.809z M315.959,253.777  c0.95-0.635,21.151-14.905,61.949-14.93c21.786,0.012,37.965,4.099,48.556,8.014c5.3,1.949,9.194,3.884,11.652,5.236  c1.229,0.674,2.099,1.209,2.604,1.528c0.218,0.137,0.368,0.242,0.455,0.299c0.041,0.031,0.067,0.054,0.072,0.054l4.573-6.481  l12.233-16.828v-0.01c-1.695-1.271-29.239-20.567-80.146-20.55c-50.916-0.036-77.516,19.347-79.282,20.745l17.423,22.859  l-2.102-2.747L315.959,253.777z M298.626,293.005l15.362,20.168l1.973,2.76c0.018-0.016,0.049-0.033,0.085-0.057  c1.738-1.172,21.937-14.845,61.86-14.869c21.788,0,37.962,4.086,48.558,8.01c5.296,1.957,9.186,3.874,11.649,5.232  c1.231,0.675,2.105,1.213,2.612,1.531c0.24,0.157,0.401,0.27,0.476,0.319c0.009,0.007,0.016,0.01,0.022,0.012l0.031,0.025  l4.647-6.598l12.154-16.723c-1.697-1.272-29.243-20.571-80.15-20.556C326.988,272.235,300.397,291.6,298.626,293.005"/>
</svg>