<?xml version="1.0" ?><!DOCTYPE svg  PUBLIC '-//W3C//DTD SVG 1.1//EN'
        'http://www.w3.org/Graphics/SVG/1.1/DTD/svg11.dtd'>
<svg enable-background="new 0 0 512 512" height="512px" id="Layer_1" version="1.1" viewBox="0 0 512 512" width="512px" xml:space="preserve" xmlns="http://www.w3.org/2000/svg" xmlns:xlink="http://www.w3.org/1999/xlink"><path d="M499.188,263.5c0-36.732-8.979-71.362-24.849-101.833c4.467-11.419,9.754-27.016,15.482-48.035  c18.519-67.919-24.078-108.372-89.436-101.778c-39.693,4.004-77.063,14.843-113.194,31.049c-2.916-0.114-5.844-0.189-8.789-0.189  c-108.702,0-199.053,78.558-217.386,181.997c45.418-65.606,111.676-100.374,111.676-100.374  c-45.232,47.387-84.251,94.017-113.227,143.17c-0.554,0.879-1.1,1.77-1.629,2.682C33.652,311.824,16.73,355.316,9.446,402.662  c-9.988,64.924,22.637,99.607,92.329,89.652c23.951-3.422,67.337-24.338,79.628-30.441c29.28,14.346,62.195,22.412,97,22.412  c96.128,0,177.894-61.441,208.204-147.191H367.109c-16.956,29.578-48.824,49.51-85.36,49.51c-52.747,0-95.786-41.525-98.232-93.666  h313.714C498.515,283.305,499.188,273.482,499.188,263.5z M103.113,476.256c-37.27,3.926-85.404-36.684-30.542-132.773  c17.7,45.521,50.065,83.711,91.292,108.783C152.458,458.672,123.2,474.143,103.113,476.256z M184.244,227.371  c6.239-48.308,47.499-85.638,97.505-85.638c50.005,0,91.267,37.33,97.505,85.638H184.244z M361.088,58.734  c93.094-43.643,126.92,2.971,116.691,50.493c-1.409,6.546-6.526,23.958-11.055,38.983  C442.147,108.151,405.148,76.543,361.088,58.734z"/></svg>