<?xml version="1.0" ?><!DOCTYPE svg  PUBLIC '-//W3C//DTD SVG 1.1//EN'  'http://www.w3.org/Graphics/SVG/1.1/DTD/svg11.dtd'><svg enable-background="new 0 0 512 512" height="512px" id="Layer_1" version="1.1" viewBox="0 0 512 512" width="512px" xml:space="preserve" xmlns="http://www.w3.org/2000/svg" xmlns:xlink="http://www.w3.org/1999/xlink"><path d="M418.072,77.757c-1.339-1.322-2.693-2.627-4.063-3.916C415.357,75.143,416.713,76.448,418.072,77.757z" fill="#3DFF1F"/><path d="M22.444,208.796c0,0-0.689,0.843-1.726,2.248c-0.148,0.767-0.301,1.533-0.441,2.302  C20.929,211.53,21.648,209.991,22.444,208.796z"/><path d="M91.02,98.055c0.444-0.451,0.878-0.91,1.326-1.358c20.667-20.667,44.73-36.892,71.522-48.223  c27.732-11.73,57.198-17.678,87.577-17.678c28.677,0,56.537,5.306,82.896,15.766c15.396,2.66,35.918,7.782,53.016,17.502  c-38.369-27.248-85.269-43.269-135.912-43.269c-65.658,0-125.017,26.938-167.656,70.352C85.773,93.558,88.162,95.883,91.02,98.055z"/><path d="M174.444,274.796c-1.636-1.363-3.035-2.819-4.227-4.338c-0.401,3.356-0.666,6.967-0.665,10.759  c-0.001,7.064,0.882,14.69,3.296,22.249c2.417,7.563,6.343,15.063,12.531,22.026c4.129,4.642,9.273,9.052,15.707,13.06l-0.36,0.579  c12.085,0.219,31.752-0.013,41.718-3.335c15-5,39-24,39-24c6-6,13-3,19-3s8-9,0-18s-36-18-57-4S192.444,289.796,174.444,274.796z   M188.939,142.822c-1.338,4.984-2.498,11.309-2.495,18.187c0.001,6.943,1.164,14.41,4.429,21.756  c2.62,5.892,5.093,10.214,7.342,13.684c1.581,2.438,3.054,4.454,4.433,6.331c2.815-2.591,6.106-5.19,8.797-6.984c6-4,29-15,32-18  s9-19,4-24s-37-2-47-4C196.231,148.953,192.199,145.98,188.939,142.822z M195.397,240.67c0.031,0.079,0.047,0.125,0.047,0.125  c0.039-0.077,0.071-0.159,0.109-0.237L195.397,240.67z M491.444,195.795c0,8.129-7.341,19.52-8.762,21.647  c0.296-0.755,0.762-3.137,0.762-10.647c0-11,3-39-11-70s-35-46-35-46v7c-3-10-31-29-31-29v10c50,46,55,78,55,78c-9-29-35-51-57-72  s-68-32-68-32c49,28,73,72,73,72c-25-24-45-22-45-22c15,11,22,23,36,45s13,74,13,74c-7-17-21-24-21-24s3,30,5,47c2,17-7,49-7,49  c0-12-7-15-7-15s2,7-8,39s-29,43-32,42s0-6,0-6s-5-4-12,7c-5.904,9.277-16.076,14.287-19.116,15.628  c3.261-1.851,4.116-8.628,4.116-8.628s-7,4-39,9s-47-9-47-9c3-3,17,0,17,0c0-3-16-8-32-10c-13.008-1.626-19.315-7.659-22.333-12.497  c-5.999-4.032-11.031-8.468-15.205-13.162c-4.784-5.379-8.437-11.095-11.161-16.895c-5.452-11.611-7.192-23.511-7.193-34.025  c0.002-9.928,1.546-18.658,3.089-24.956c1.545-6.296,3.095-10.162,3.165-10.335v0l0.213,0.086  c1.878-5.779,5.565-10.425,9.929-12.319c-1.369-0.934-2.773-1.803-4.224-2.569c-6.53-3.492-13.932-4.942-21.207-3.735  c-7.291,1.155-14.271,4.768-20.475,9.51c-5.953,4.542-10.691,11.009-13.799,18.147c-3.13,7.162-4.698,15.066-4.697,23.01  c-0.007,7.95,1.557,15.937,4.44,23.459c2.875,7.532,7.049,14.598,12.094,20.995c5.046,6.407,10.954,12.157,17.363,17.286  c-6.684-4.766-12.94-10.202-18.415-16.409c-5.472-6.197-10.155-13.18-13.572-20.823c-3.422-7.63-5.552-15.921-6.017-24.392  c-0.471-8.462,0.718-17.092,3.723-25.17c3.011-8.063,7.797-15.609,14.609-21.453c3.291-2.756,6.873-5.26,10.762-7.332  c3.884-2.073,8.106-3.69,12.55-4.6c4.438-0.912,9.088-1.085,13.622-0.453c4.539,0.618,8.936,2.013,13.007,3.946  c4.078,1.934,7.843,4.39,11.292,7.183c1.724,1.399,3.372,2.882,4.944,4.453c0.787,0.785,1.553,1.592,2.303,2.428  c0.624,0.702,1.201,1.367,1.825,2.158c3.563-9.237,1.065-24.677,0.48-27.918c-1.886-2.67-4.562-6.038-7.577-10.846  c-2.273-3.628-4.731-8.079-7.247-13.742c-3.936-8.854-5.292-17.767-5.291-25.818c0.003-9.401,1.83-17.664,3.648-23.626  c0.562-1.838,1.123-3.457,1.634-4.824c5.651-24.581,32.718-48.762,32.718-48.762c-38-5-64,30-64,30  c-0.105-0.065-0.213-0.123-0.319-0.187c-2.695,2.987-11.83,13.671-12.681,22.187c0,0,0.316-15.304,4.143-26.004  c-14.499-4.62-31.564-2.206-40.316-0.392l0.057,0.318c-8.968,1.609-17.159,5.06-24.436,9.404  c-7.274,4.341-13.619,9.571-18.833,14.637c-10.416,10.11-16.296,19.553-16.357,19.658h0L41.7,153.42l-0.282-0.174  c-18.405,26.674-29.974,83.551-29.974,83.551c2-9,11-20,11-20c-10,15-8,84-8,84c0-11,6-24,6-24c2,23,12,97,77,153s120,61,120,61  c-13-4-16-10-16-10c42,17,68,14,68,14c-7-4-8-7-8-7c45,2,105-14,119-24s26-30,26-30c36-17,61-52,68-70s0-37,0-37s0-1,17-39  S491.444,195.795,491.444,195.795z M71.575,110.649c4.218-2.531,8.771-4.816,13.627-6.702  C65.949,87.912,67.444,66.796,67.444,66.796c-19.264,18.6-23.965,49.992-24.951,68.976c0.272-0.319,0.543-0.638,0.827-0.964  C49.837,127.312,59.349,117.991,71.575,110.649z"/></svg>