<?xml version="1.0" ?><!DOCTYPE svg  PUBLIC '-//W3C//DTD SVG 1.1//EN'  'http://www.w3.org/Graphics/SVG/1.1/DTD/svg11.dtd'><svg enable-background="new 0 0 512 512" height="512px" id="Layer_1" version="1.1" viewBox="0 0 512 512" width="512px" xml:space="preserve" xmlns="http://www.w3.org/2000/svg" xmlns:xlink="http://www.w3.org/1999/xlink"><path d="M346.82,260.121c0.008-1.693,0.014-3.399,0.014-5.125h-0.051c-0.604-64.268-7.223-105.348-16.4-132.662  c-4.818-14.322-10.357-24.865-16.102-32.895c-5.74-8.029-11.689-13.527-17.131-17.738c-6.533-5.05-14.266-7.752-21.342-9.261  c-7.082-1.501-13.543-1.793-17.632-1.794c-1.311,0-2.367,0.031-3.131,0.064c-0.762-0.033-1.821-0.064-3.13-0.064  c-4.089,0.001-10.551,0.293-17.632,1.794c-7.075,1.509-14.809,4.211-21.342,9.261c-5.441,4.211-11.391,9.708-17.129,17.738  c-8.622,12.052-16.759,29.725-22.734,57.393c-5.604,25.956-9.331,60.741-9.774,108.164h-0.045c0,1.466,0.007,2.906,0.014,4.35  c-0.009,1.738-0.014,3.49-0.014,5.262h0.052c0.62,62.445,7.234,102.395,16.41,128.979c4.822,13.959,10.368,24.237,16.119,32.064  c5.745,7.827,11.699,13.182,17.14,17.282c6.534,4.918,14.257,7.543,21.325,9.012c7.074,1.46,13.529,1.743,17.613,1.744  c1.31,0,2.368-0.03,3.129-0.062c0.762,0.031,1.819,0.062,3.13,0.062c4.084-0.001,10.539-0.284,17.613-1.744  c7.066-1.469,14.791-4.094,21.324-9.012c5.441-4.101,11.396-9.455,17.141-17.282c8.631-11.748,16.777-28.979,22.756-55.938  c5.6-25.243,9.32-59.051,9.777-105.106h0.047C346.834,263.096,346.826,261.61,346.82,260.121z M323.434,391.171  c-4.619,13.37-9.826,22.937-15.09,30.104c-5.27,7.166-10.592,11.952-15.641,15.766c-5.266,3.986-12,6.368-18.395,7.684  c-6.389,1.321-12.398,1.596-16.133,1.594c-0.939,0-1.735-0.018-2.358-0.038l-0.006-0.074h-0.002l0,0  c-0.012,0.002-0.285,0.021-0.76,0.044c-0.224-0.012-0.415-0.021-0.542-0.029l-0.183-0.011l-0.038-0.004h-0.004h-0.003l-0.005,0.074  c-0.625,0.021-1.417,0.038-2.359,0.038c-3.734,0.002-9.744-0.272-16.132-1.594c-6.394-1.315-13.127-3.697-18.395-7.684  c-5.048-3.813-10.372-8.6-15.641-15.766c-7.89-10.741-15.676-26.921-21.499-53.162c-5.625-25.348-9.389-60.049-9.634-108.047  c0.287-66.691,7.005-108.5,16.052-135.371c4.625-13.745,9.838-23.584,15.107-30.953c5.276-7.368,10.603-12.286,15.652-16.202  c5.267-4.094,11.989-6.536,18.375-7.885c6.379-1.356,12.382-1.636,16.113-1.634c0.946,0,1.743,0.018,2.367,0.039l0.006,0.077h0.003  l0,0c0.013-0.001,0.283-0.021,0.756-0.045c0.217,0.011,0.406,0.021,0.53,0.029l0.181,0.012l0.039,0.003h0.004l0.006-0.076l0,0  l-0.006,0.076h0.002l0.006-0.077c0.625-0.021,1.42-0.039,2.367-0.039c3.731-0.002,9.733,0.278,16.114,1.634  c6.385,1.349,13.107,3.791,18.375,7.885c5.049,3.917,10.375,8.833,15.65,16.202c7.898,11.045,15.695,27.686,21.521,54.654  c5.629,26.049,9.393,61.702,9.639,111.004C339.191,324.336,332.473,365.031,323.434,391.171z"/><path d="M473.963,177.742C433.051,40.323,326.379,12,254.875,12c-72.382,0-178.159,28.323-219.07,165.742  c-8.071,27.111-11.268,53.918-10.751,79.724c-0.516,25.807,2.68,52.612,10.751,79.725  c40.911,137.419,146.688,165.742,219.07,165.742c71.504,0,178.176-28.323,219.088-165.742c8.07-27.112,11.268-53.918,10.75-79.725  C485.23,231.66,482.033,204.853,473.963,177.742z M305.072,450.481c-15.404,12.324-40.895,14.355-50.111,14.654  c-9.22-0.299-34.862-2.33-50.267-14.654c-20.825-16.66-47.844-51.95-48.243-193.016C156.85,116.4,183.869,81.109,204.694,64.45  c15.405-12.324,41.047-14.355,50.267-14.653c9.217,0.298,34.707,2.329,50.111,14.653c20.826,16.66,47.844,51.95,48.242,193.016  C352.916,398.531,325.898,433.821,305.072,450.481z"/></svg>