<?xml version="1.0" ?>
<svg height="24px" version="1.1" viewBox="0 0 24 24" width="24px" xmlns="http://www.w3.org/2000/svg" xmlns:sketch="http://www.bohemiancoding.com/sketch/ns" xmlns:xlink="http://www.w3.org/1999/xlink">
<title/>
<desc/>
<defs/>
<g fill="none" fill-rule="evenodd" id="miu" stroke="none" stroke-width="1"><g id="Artboard-1" transform="translate(-683.000000, -587.000000)"><g id="slice" transform="translate(215.000000, 119.000000)"/>
<path d="M700.406237,591.115472 C703.169791,592.940248 705,596.123191 705,599.744523 C705,605.408467 700.522848,610 695,610 C689.477152,610 685,605.408467 685,599.744523 C685,596.04556 686.909519,592.803984 689.772769,591 L691.170636,595.477725 C690.021065,596.565738 689.301075,598.124038 689.301075,599.854797 C689.301075,603.143539 691.900712,605.80959 695.107527,605.80959 C698.314342,605.80959 700.913978,603.143539 700.913978,599.854797 C700.913978,598.124038 700.193989,596.565738 699.044418,595.477725 L700.406237,591.115472 Z M695,588 C693,587.999999 693,590.095238 693,590.095238 L693,596.904762 C693,596.904762 693,598.999999 695,599 C697,599.000001 697,596.904762 697,596.904762 L697,590.095238 C697,590.095238 697,588.000001 695,588 L695,588 Z" fill="#000000" id="device-power-glyph"/>
</g>
</g>
</svg>