<?xml version="1.0" ?><!DOCTYPE svg  PUBLIC '-//W3C//DTD SVG 1.1//EN'  'http://www.w3.org/Graphics/SVG/1.1/DTD/svg11.dtd'><svg enable-background="new 0 0 24 24" height="24px" id="Layer_1" version="1.1" viewBox="0 0 24 24" width="24px" xml:space="preserve" xmlns="http://www.w3.org/2000/svg" xmlns:xlink="http://www.w3.org/1999/xlink"><g><path d="M23,4V2.1C23,1.5,22.5,1,21.9,1H9.8L9,0H1.1C0.5,0,0,0.5,0,1.1v21.8C0,23.5,0.5,24,1.1,24h21.8c0.6,0,1.1-0.5,1.1-1.1V5.1   C24,4.5,23.6,4.1,23,4z M22,22H2V2h6l3,4h11V22z M22,4H12l-1.5-2H22V4z"/><path d="M9,12c0,1,0.5,1.8,1.2,2.4C8.3,15.1,7,16.9,7,19h10c0-2.1-1.3-3.9-3.2-4.6C14.5,13.8,15,13,15,12c0-1.7-1.3-3-3-3   S9,10.3,9,12z M15.9,18H8.1c0.4-1.7,2-3,3.9-3S15.4,16.3,15.9,18z M12,10c1.1,0,2,0.9,2,2s-0.9,2-2,2s-2-0.9-2-2S10.9,10,12,10z"/></g></svg>