<?xml version="1.0" standalone="no"?>
<!DOCTYPE svg PUBLIC "-//W3C//DTD SVG 20010904//EN"
 "http://www.w3.org/TR/2001/REC-SVG-20010904/DTD/svg10.dtd">
<svg version="1.0" xmlns="http://www.w3.org/2000/svg"
 width="700.000000pt" height="700.000000pt" viewBox="0 0 700.000000 700.000000"
 preserveAspectRatio="xMidYMid meet">
<metadata>
Created by potrace 1.11, written by Peter Selinger 2001-2013
</metadata>
<g transform="translate(0.000000,700.000000) scale(0.100000,-0.100000)"
fill="#000000" stroke="none">
<path d="M4117 6604 c-1 -1 -56 -5 -122 -8 -125 -8 -177 -12 -229 -20 -17 -3
-54 -8 -82 -11 -28 -3 -59 -7 -70 -9 -10 -2 -53 -9 -94 -16 -111 -18 -348 -74
-485 -114 -221 -64 -361 -118 -610 -234 -110 -52 -156 -76 -300 -157 -108 -61
-360 -228 -385 -255 -3 -3 -21 -17 -40 -30 -114 -79 -363 -307 -530 -485 -211
-225 -475 -596 -598 -842 -141 -279 -276 -672 -326 -943 -9 -47 -18 -94 -20
-106 -6 -28 -16 -113 -26 -204 -7 -73 -5 -384 4 -445 2 -16 7 -52 10 -80 4
-27 8 -57 11 -65 2 -8 7 -31 10 -50 14 -85 81 -313 114 -385 107 -235 186
-367 320 -535 79 -100 279 -305 370 -381 29 -24 59 -49 65 -54 80 -74 326
-237 476 -317 481 -257 965 -416 1455 -480 111 -14 543 -18 670 -5 337 33 697
113 910 202 332 139 649 344 945 610 87 78 260 254 320 324 30 35 62 71 71 80
13 13 98 121 173 221 6 8 -5 3 -24 -12 -19 -14 -132 -97 -250 -184 -118 -88
-224 -166 -236 -174 -459 -325 -849 -510 -1244 -589 -102 -21 -143 -27 -270
-41 -96 -11 -477 -4 -555 9 -33 6 -80 13 -104 16 -24 3 -72 12 -107 20 -35 8
-77 17 -93 20 -110 19 -392 113 -591 197 -121 51 -398 193 -470 241 -248 164
-515 438 -677 695 -147 233 -255 513 -290 747 -2 17 -6 35 -8 42 -23 70 -24
491 -1 613 3 14 10 57 16 95 6 39 16 88 21 110 6 22 12 47 14 55 39 196 174
529 297 728 23 37 46 76 52 87 26 46 139 207 213 303 117 149 180 220 342 382
441 441 982 778 1568 976 59 20 113 37 118 38 6 1 35 10 65 19 153 45 429 96
615 113 104 10 424 11 540 1 50 -4 131 -14 180 -22 50 -9 104 -18 120 -21 64
-11 294 -74 380 -104 187 -66 403 -174 588 -293 31 -21 57 -34 57 -30 0 4 -31
40 -68 78 -290 301 -762 518 -1352 620 -74 13 -162 26 -195 30 -33 3 -73 8
-90 10 -95 13 -557 28 -568 19z"/>
<path d="M4596 5978 c-3 -13 -8 -50 -11 -83 -3 -33 -7 -71 -9 -85 -3 -14 -7
-50 -11 -80 -3 -30 -7 -71 -10 -90 -3 -19 -7 -60 -10 -90 -4 -30 -8 -66 -10
-80 -19 -122 -20 -118 39 -123 27 -2 30 3 51 63 92 261 188 538 192 551 5 18
-6 20 -154 35 -59 5 -62 4 -67 -18z"/>
<path d="M2333 4943 c-34 -38 -58 -71 -55 -74 4 -4 152 -80 330 -170 309 -156
323 -162 337 -143 8 10 15 22 15 25 0 5 -555 429 -562 429 -2 0 -31 -30 -65
-67z"/>
<path d="M3590 3667 c3 -2 50 -7 105 -11 55 -4 114 -9 130 -11 68 -9 188 -27
208 -30 12 -2 45 -7 72 -11 28 -4 55 -8 60 -9 9 -2 138 -25 230 -40 17 -3 44
-8 60 -12 40 -9 34 -8 90 -18 28 -4 55 -9 60 -10 6 -2 57 -12 115 -24 58 -12
114 -23 125 -25 11 -3 40 -9 65 -15 25 -5 56 -12 70 -15 27 -5 152 -33 185
-40 11 -3 92 -22 180 -41 413 -93 832 -229 947 -307 14 -10 29 -18 33 -18 15
0 124 -81 153 -114 l31 -36 45 63 c94 132 157 269 191 417 20 86 28 230 16
263 l-9 23 -509 3 c-279 2 -632 5 -783 7 -641 8 -1875 16 -1870 11z"/>
<path d="M2245 2794 c-133 -38 -185 -52 -422 -115 -90 -24 -163 -48 -163 -53
0 -5 14 -38 30 -73 17 -34 30 -68 30 -74 0 -6 8 -9 18 -6 14 3 692 286 699
292 1 0 -1 14 -5 31 -11 40 -40 40 -187 -2z"/>
<path d="M3792 1978 c-6 -13 -41 -102 -78 -198 -37 -96 -85 -220 -107 -275
-21 -55 -40 -108 -41 -119 -1 -20 -1 -20 90 -30 32 -4 73 -9 90 -12 l31 -5 13
73 c16 94 16 94 24 149 4 25 9 57 11 70 5 28 22 137 30 194 8 51 11 71 20 116
6 33 4 37 -18 43 -14 3 -31 8 -39 11 -8 3 -19 -4 -26 -17z"/>
</g>
</svg>
