
<svg xmlns="http://www.w3.org/2000/svg" viewBox="0 0 1920.23 450.13"><defs><style>.a{fill:#37459c;}.b,.f{fill:#2b367f;}.c,.d{fill:none;stroke:#29387f;stroke-miterlimit:10;}.c{stroke-width:4px;}.d{stroke-width:3px;}.e{fill:#27397f;}.f{opacity:0.87;}</style></defs><path d="M800.36 0c-1.2.06-2.4.08-3.58 0H.2v450h1920V0z" class="a"/><path d="M576.68 358.8l-3.07 4.43a3 3 0 0 0-.5 1.7v4.83a3 3 0 0 0 .9 2.12l3.3 3.24a3 3 0 0 0 2.2.88H622a3 3 0 0 0 2.12-.88l93.27-93.27a3 3 0 0 1 2-.88l39.1-.94a3 3 0 0 0 2-.86l23.2-22.77a3 3 0 0 0 .9-2.18l-.4-37.92a3 3 0 0 1 .9-2.2l21.1-20.2a11.47 11.47 0 0 0 1.8-4.3l.4-2.18a18 18 0 0 0-1.3-4.25l-2.6-3.88a4.8 4.8 0 0 0-3.3-1.5l-2.2-.8a12.3 12.3 0 0 0-4.3 1.7L764.9 208a3 3 0 0 0-.9 2.15l.07 34.7a3 3 0 0 1-.75 2l-6.75 7.66-6.42 6.8a3 3 0 0 1-2.16 1l-36.2.3a3 3 0 0 0-2.1.9L677 296l-40.5 41.5-19.63 19.15a3 3 0 0 1-2.1.85h-35.7a3 3 0 0 0-2.46 1.3zm306.9-168.3l-27.5 29V340l32.5 31h71.5l37 35h7l5.16-5 .83-6-39-40-75.5-1-21.5-21.5V225l22-20.5 1.64-7.37-6.1-6.63h-8m92-89.5v7l3 6 8 2.5 6-3 62-63.5h152.5l24.5 22.5h52l42.5-42V0l-18.8.04.3 22.46-31 31h-37l-23-22-103 .5-67 .5-71 68.5m-78 12.5h78v77h-78zm342.5 19.5l6-5.5h8l5 5.5v85.5l17.5 17.5v124l27 26.5 1.2 37.5-5.1 6.5h-8.8l-5.1-4.5.8-31.17-26.8-27.83 1-122-20.5-20v-92M786.1 0l14.33 15.75 7.43 1.42L815 11.5l.07-8.42L812.5 0h-26.43m-259.5 318l3.25-4.5h4.25l4 4.5v49.44l-3 5.56h-5l-3.5-5.56V318m654.5-72.17l-21 19.67V339h6v-70l14.5-14v3.17h26V232.5h-25.5v13.33m0-44.33h25.5V228h-25.5zm0-29.5h25.5v25.5h-25.5zm25.5-4.5h-25.5V159h-35l-9-10.5h-36V141h39.17l9.66 11h31.17v-11h25.5v26.5" class="b"/><path d="M1054.57 172v3.5h29.67l12.33 11.5h85.5v-4.33l-83.28-.2-11.4-10.47h-32.9" class="b"/><path d="M1033.07 188.67l19.72-.17 9.6-9h23l13.3 11h83.3v4.83h-85l-12-10.58h-19.7l-9 8.58H1033v-4.66m-201.6 44.66h18.67v6H831.4zm0 10.67h18.67v6H831.4zm0 10.67h18.67v6H831.4zm0 10h18.67v6H831.4zm0 10h18.67v6H831.4zm0 10h18.67v6H831.4zm0 10h18.67v6H831.4zm0 10.33h18.67v6H831.4zm0 10h18.67v6H831.4z" class="b"/><circle cx="581.9" cy="367.17" r="5.83" class="a"/><circle cx="798.74" cy="187" r="6" class="a"/><circle cx="888.07" cy="199.33" r="5.33" class="a"/><circle cx="1026.51" cy="191.19" r="5.44" class="c"/><circle cx="1049.13" cy="172.94" r="5.44" class="c"/><circle cx="1025.51" cy="154.25" r="5.44" class="c"/><circle cx="1096.63" cy="144.37" r="5.44" class="c"/><circle cx="1162.84" cy="343.44" r="5.44" class="c"/><circle cx="908.07" cy="247" r="3.66" class="d"/><circle cx="908.07" cy="260.67" r="3.66" class="d"/><circle cx="908.07" cy="273.34" r="3.66" class="d"/><circle cx="908.07" cy="286.67" r="3.66" class="d"/><circle cx="908.07" cy="299.67" r="3.66" class="d"/><circle cx="985.4" cy="226.75" r="3.66" class="d"/><circle cx="985.4" cy="239.33" r="3.66" class="d"/><circle cx="985.4" cy="253.34" r="3.66" class="d"/><circle cx="985.4" cy="265.67" r="3.66" class="d"/><circle cx="985.4" cy="278.67" r="3.66" class="d"/><circle cx="998.73" cy="278.67" r="3.66" class="d"/><circle cx="998.73" cy="265.67" r="3.66" class="d"/><circle cx="998.73" cy="253.34" r="3.66" class="d"/><circle cx="998.73" cy="239.33" r="3.66" class="d"/><circle cx="998.73" cy="226.75" r="3.66" class="d"/><circle cx="987.07" cy="184.75" r="3.66" class="d"/><circle cx="987.07" cy="165" r="3.66" class="d"/><circle cx="987.07" cy="144.66" r="3.66" class="d"/><circle cx="987.07" cy="126.08" r="3.66" class="d"/><circle cx="1010.07" cy="115.08" r="3.66" class="d"/><circle cx="917.4" cy="208.33" r="3.66" class="d"/><circle cx="903.57" cy="208.33" r="3.66" class="d"/><circle cx="941.73" cy="336.08" r="3.66" class="d"/><circle cx="973.07" cy="346.22" r="3.66" class="d"/><circle cx="1009.07" cy="345.22" r="3.66" class="d"/><circle cx="1018.73" cy="356.41" r="3.66" class="d"/><circle cx="1029.41" cy="368.75" r="3.66" class="d"/><circle cx="1052.79" cy="211.09" r="3.66" class="d"/><circle cx="1066.4" cy="215.66" r="3.66" class="d"/><circle cx="1054.57" cy="407.75" r="3.66" class="d"/><circle cx="1075.4" cy="411.41" r="3.66" class="d"/><circle cx="1093.73" cy="333.34" r="3.66" class="d"/><circle cx="1080.4" cy="348.88" r="3.66" class="d"/><circle cx="1108.57" cy="347.88" r="3.66" class="d"/><circle cx="1143.07" cy="250.66" r="3.66" class="d"/><circle cx="1131.73" cy="265.67" r="3.66" class="d"/><circle cx="1122.05" cy="250.66" r="3.66" class="d" transform="rotate(-60 1122.078 250.604)"/><circle cx="844.4" cy="214.75" r="3.66" class="d"/><circle cx="879.32" cy="180.5" r="3.66" class="d"/><circle cx="879.32" cy="160.34" r="3.66" class="d"/><circle cx="879.32" cy="143.37" r="3.66" class="d"/><circle cx="880.32" cy="126.08" r="3.66" class="d"/><circle cx="817.65" cy="323.66" r="3.66" class="d"/><circle cx="827.74" cy="436.34" r="3.66" class="d"/><circle cx="813.99" cy="436.34" r="3.66" class="d"/><circle cx="798.74" cy="436.34" r="3.66" class="d"/><circle cx="784.98" cy="436.34" r="3.66" class="d"/><circle cx="843.4" cy="336.08" r="3.66" class="d"/><circle cx="827.74" cy="346.67" r="3.66" class="d"/><circle cx="903.57" cy="394.09" r="3.66" class="d"/><circle cx="954.32" cy="394.09" r="3.66" class="d"/><circle cx="987.07" cy="361.42" r="3.66" class="d"/><circle cx="1008.65" cy="438.34" r="3.66" class="d"/><circle cx="990.73" cy="426.34" r="3.66" class="d"/><circle cx="977.73" cy="442.01" r="3.66" class="d"/><circle cx="954.32" cy="442.01" r="3.66" class="d"/><circle cx="891.73" cy="409.66" r="3.66" class="b"/><path d="M908.24 392.67h41.33v3h-41.33zm-17.5 19.66v15.84l15.5 15.33H950V441h-43.7l-12.87-12.88-.28-16.1-2.43.3" class="b"/><path d="M832.24 348.88h13.83l36.83 37.3h73.84L977.07 406v31.33h2.67V406l-23.67-23.33-71.83.5-36.34-36.5h-14.83l-.83 2.2" class="b"/><path d="M844.9 340.67l39.17 39h72.83l31.67 31.17v11a21 21 0 0 1 3.33.85v-13L957.98 376h-72.4l-37.5-37.33zm144.67 25l27.33 27v9l-10 10v22.16h3.17v-20.8l10.5-10.2.83-10.83-29.88-28.7-1.95 2.37M846.9 210.33l28.67-29.24 2.5 3.6-28.67 28.4-2.5-2.9m65.67 34.8h50.17l17.83-17.5 2.17 2.7-18.17 18.2h-52V245" class="b"/><path d="M912.57 259h50.67l18.5-17.83 1.66 2.83-18 18h-52.83v-3" class="b"/><path d="M912.57 272.33h50.5l17.33-17.66 2.34 3-18 18h-53l.83-3.34" class="b"/><path d="M912.57 286h50.67l17.5-18.17 2.66 1.84-18.66 19.16h-52.17V286" class="b"/><path d="M912.57 298.25h50.17l18.16-17.42 1.84 2.17-19.17 18.67h-51v-3.42m76.5-109.08l8.17 8.83v24.17h3.5v-25.04l-10-9.7-1.68 1.74" class="b"/><path d="M989.06 169.67l18.34 18.74v42l-5 5.3 1.34 2.5 6.33-6.5.83-45.6-19-18.8-2.84 2.5m12.5 112.7l6.34 5.4v52.8h3V286l-7.33-6-2 2.33" class="b"/><path d="M1001.57 269.33l10.17 9.34V331l6 6.17v14.66h3v-15.75l-6.17-6.25.33-52.83-11.16-10-2.17 2.33" class="b"/><path d="M1002.4 257l13.67 13.5v59l7.32 6.58v10.6l4 3.66v14.16h3.3v-15.62l-4.2-3.66.6-10.72-7.5-6.33v-58.84l-16-16-1.4 3.67m-103.8-47.17l-19.7 19.34-.9 99.16 19.6 19.5h72.7l-1.38-3.5-69.13-.16-17.15-16.84V231.5l18-19.5-2.16-2.17" class="b"/><path d="M913.74 211.1l-27 27.07v88.5l11.66 12h39.67l-1.9-3.67h-35.43l-10.5-10.33.16-83.5 26.34-28-3-2.08" class="b"/><circle cx="999.98" cy="397.01" r="5.83" class="a"/><circle cx="986.07" cy="105.58" r="5.83" class="a"/><circle cx="1294.9" cy="421.68" r="5.83" class="a"/><circle cx="1249.9" cy="137.7" r="5.83" class="a"/><circle cx="806.07" cy="8" r="5.83" class="a"/><path d="M875.24 160l-58.84 58.4v100.27h2.84l.66-100.26 55.34-55.7V160M826.9 441v9h3.34v-10.17L826.9 441m-14.33-.17h3.33V450h-3.33zm-15.54 0V450h3.5l-.17-9.17h-3.33M786.57 450v-10h-2.6l-.57.83V450a29.9 29.9 0 0 1 3.17 0zm394.5-241.33h-70.5l-24.33 23.83V324l-7.67 7.67v13.55h3.5v-11.9l8-7.82v-91.33l22-21.34 69-.16v-4" class="b"/><path d="M1181.07 214.75h-67.5l-21 20.92v93.83h2.67l.5-92.83 19.5-18.84 65.83-.16v-2.92" class="b"/><path d="M1181.07 220.33h-65l-16.67 16.17v89.17l6.67 6.66.67 11.1 3.5 1.8-.17-14.56-7.17-6.5.17-86 14.83-14.34h63.17v-3.5" class="b"/><circle cx="1129.82" cy="384.24" r="3.66" class="d"/><circle cx="1165.62" cy="387.91" r="3.66" class="d"/><circle cx="1029.41" cy="423.91" r="3.66" class="d"/><circle cx="1048.4" cy="106.74" r="3.66" class="d"/><circle cx="1056.4" cy="96.91" r="3.66" class="d"/><circle cx="1159.73" cy="120.16" r="3.66" class="d"/><circle cx="1159.73" cy="136.08" r="3.66" class="d"/><circle cx="1083.4" cy="88.91" r="3.66" class="d"/><circle cx="1195.4" cy="120.16" r="3.66" class="d"/><circle cx="1072.9" cy="22.41" r="3.66" class="d"/><circle cx="978.57" cy="83.74" r="3.66" class="d"/><circle cx="998.9" cy="41.08" r="3.66" class="d"/><circle cx="978.57" cy="55.07" r="3.66" class="d"/><circle cx="993.07" cy="24.74" r="3.66" class="d"/><circle cx="1010.9" cy="13.58" r="3.66" class="d"/><circle cx="995.24" cy="8.4" r="3.66" class="d"/><circle cx="1194.4" cy="22.41" r="3.66" class="d"/><circle cx="1194.4" cy="5.66" r="3.66" class="d"/><circle cx="1263.07" cy="119.41" r="3.66" class="d"/><circle cx="1254.73" cy="94.24" r="3.66" class="d"/><circle cx="1274.07" cy="106.74" r="3.66" class="d"/><circle cx="1306.57" cy="108.58" r="3.66" class="d"/><circle cx="1232.9" cy="131.87" r="3.66" class="d"/><circle cx="1223.32" cy="147.58" r="3.66" class="d"/><circle cx="1271.4" cy="137.34" r="3.66" class="d"/><circle cx="1319.73" cy="116.5" r="3.66" class="d"/><circle cx="1319.73" cy="141.59" r="3.66" class="d"/><circle cx="1241.23" cy="234.08" r="3.66" class="d"/><circle cx="1241.23" cy="248.24" r="3.66" class="d"/><circle cx="1244.9" cy="272.13" r="3.66" class="d"/><circle cx="1232.07" cy="286.44" r="3.66" class="d"/><circle cx="1217.57" cy="300.91" r="3.66" class="d"/><circle cx="1227.4" cy="346.08" r="3.66" class="d"/><circle cx="1217.57" cy="372.74" r="3.66" class="d"/><circle cx="1207.57" cy="387.91" r="3.66" class="d"/><circle cx="1230.07" cy="406.58" r="3.66" class="d"/><circle cx="1264.57" cy="410.24" r="3.66" class="d"/><circle cx="1250.23" cy="422.74" r="3.66" class="d"/><circle cx="1238.4" cy="436.74" r="3.66" class="d"/><circle cx="1277.9" cy="427.51" r="3.66" class="d"/><circle cx="1310.23" cy="359.75" r="3.66" class="d"/><circle cx="1310.23" cy="338" r="3.66" class="d"/><circle cx="1331.9" cy="351.58" r="3.66" class="d"/><circle cx="1331.9" cy="423.85" r="3.66" class="d"/><circle cx="1288.73" cy="295.74" r="3.66" class="d"/><circle cx="1301.07" cy="284.91" r="3.66" class="d"/><circle cx="1341.9" cy="314.91" r="3.66" class="d"/><circle cx="1341.9" cy="300.41" r="3.66" class="d"/><circle cx="1341.9" cy="284.91" r="3.66" class="d"/><circle cx="1341.9" cy="269.58" r="3.66" class="d"/><circle cx="1349.23" cy="190.66" r="3.66" class="d"/><circle cx="1346.9" cy="162.75" r="3.66" class="d"/><circle cx="1347.07" cy="82.58" r="3.66" class="d"/><circle cx="897.57" cy="90.74" r="3.66" class="d"/><circle cx="912.57" cy="90.74" r="3.66" class="d"/><circle cx="936.57" cy="95.58" r="3.66" class="d"/><circle cx="954.73" cy="91.91" r="3.66" class="d"/><circle cx="946.23" cy="65.91" r="3.66" class="d"/><circle cx="954.73" cy="50.24" r="3.66" class="d"/><circle cx="851.07" cy="128.41" r="3.66" class="d"/><circle cx="851.07" cy="155.08" r="3.66" class="d"/><circle cx="834.73" cy="113.5" r="3.66" class="d"/><circle cx="799.07" cy="118.74" r="3.66" class="d"/><circle cx="817.4" cy="165" r="3.66" class="d"/><circle cx="846.9" cy="169.91" r="3.66" class="d"/><circle cx="830.07" cy="177.1" r="3.66" class="d"/><circle cx="803.9" cy="303.33" r="3.66" class="d"/><circle cx="787.64" cy="342.6" r="5.7" class="d"/><circle cx="812.07" cy="364.24" r="3.66" class="d"/><circle cx="796.57" cy="377.01" r="3.66" class="d"/><circle cx="779.23" cy="377.01" r="3.66" class="d"/><circle cx="773.23" cy="359.41" r="3.66" class="d"/><circle cx="748.73" cy="359.41" r="3.66" class="d"/><circle cx="856.07" cy="442.41" r="3.66" class="d"/><circle cx="875.23" cy="442.41" r="3.66" class="d"/><circle cx="731.57" cy="303.33" r="3.66" class="d"/><circle cx="711.23" cy="312.58" r="3.66" class="d"/><circle cx="689.9" cy="330.99" r="3.66" class="d"/><circle cx="678.07" cy="282.41" r="3.66" class="d"/><circle cx="612.03" cy="312.58" r="3.66" class="d"/><circle cx="626.4" cy="312.58" r="3.66" class="d"/><circle cx="626.4" cy="294.08" r="3.66" class="d"/><circle cx="625.4" cy="276.55" r="3.66" class="d"/><circle cx="609.57" cy="278.41" r="3.66" class="d"/><circle cx="547.07" cy="261.41" r="3.66" class="d"/><circle cx="527.9" cy="276.55" r="3.66" class="d"/><circle cx="530.23" cy="235.24" r="3.66" class="d"/><circle cx="533.9" cy="216.24" r="3.66" class="d"/><circle cx="662.57" cy="221.34" r="3.66" class="d"/><circle cx="675.73" cy="208.24" r="3.66" class="d"/><circle cx="531.56" cy="188.24" r="3.66" class="d"/><circle cx="533.9" cy="165.58" r="3.66" class="d"/><circle cx="551.4" cy="141.58" r="3.66" class="d"/><circle cx="529.4" cy="113.74" r="3.66" class="d"/><circle cx="558.73" cy="105.74" r="3.66" class="d"/><circle cx="667.57" cy="141.58" r="3.66" class="d"/><circle cx="698.23" cy="148.34" r="3.66" class="d"/><circle cx="664.73" cy="85.74" r="3.66" class="d"/><circle cx="529.4" cy="89.41" r="3.66" class="d"/><circle cx="529.4" cy="44.32" r="3.66" class="d"/><circle cx="619.57" cy="46.91" r="3.66" class="d"/><circle cx="644.07" cy="40.66" r="3.66" class="d"/><circle cx="592.23" cy="345.58" r="3.66" class="d"/><circle cx="554.9" cy="382.75" r="3.66" class="d"/><circle cx="522.91" cy="416.58" r="3.66" class="d"/><circle cx="532.32" cy="429.08" r="3.66" class="d"/><circle cx="627.73" cy="411.74" r="3.66" class="d"/><circle cx="617.06" cy="426.41" r="3.66" class="d"/><circle cx="629.07" cy="443.24" r="3.66" class="d"/><circle cx="655.57" cy="429.08" r="3.66" class="d"/><circle cx="678.17" cy="438.18" r="5.55" class="d"/><circle cx="746.9" cy="209.83" r="3.66" class="d"/><circle cx="746.9" cy="228.58" r="3.66" class="d"/><circle cx="690.4" cy="5.2" r="3.66" class="d"/><circle cx="700.4" cy="41.41" r="3.66" class="d"/><circle cx="827.41" cy="22.74" r="3.66" class="d"/><circle cx="760.07" cy="88.41" r="3.66" class="d"/><circle cx="804.23" cy="55.74" r="3.66" class="d"/><circle cx="842.06" cy="39.74" r="3.66" class="d"/><circle cx="831.07" cy="74.08" r="3.66" class="d"/><circle cx="855.4" cy="85.74" r="3.66" class="d"/><circle cx="863.9" cy="10.17" r="3.66" class="d"/><circle cx="841.23" cy="6.51" r="3.66" class="d"/><circle cx="913.74" cy="9.08" r="3.66" class="d"/><circle cx="736.07" cy="27.58" r="3.66" class="d"/><ellipse cx="735.82" cy="27.14" class="d" rx="14.25" ry="13.31"/><circle cx="735.53" cy="26.62" r="19.79" class="d"/><circle cx="735.53" cy="27.62" r="19.79" class="d"/><circle cx="735.53" cy="26.62" r="19.79" class="d"/><circle cx="735.53" cy="27.62" r="19.79" class="d"/><circle cx="735.53" cy="26.62" r="19.79" class="d"/><circle cx="735.53" cy="27.62" r="19.79" class="d"/><circle cx="1093.73" cy="383.25" r="3.66" class="d"/><circle cx="1093.62" cy="383.13" r="13.88" class="d"/><circle cx="1093.46" cy="383.09" r="21.91" class="d"/><path d="M816.94 365.75h9.88l46.37 46.75.6 26.25h2.8v-28.12L828.5 362h-11.6v3.75" class="e"/><path d="M801.57 375.63h8.75l6.62-5.75h12.63l42 42.5v14.87l-11.84 12.25-2.8-2.17 11.4-11.7v-11.25l-40.6-40-8.8-.25-4.7 4.5-12.66.25v-3.25m-26.75-.5H763.2l-29.5 29.56V450h4l-.38-43.3 28.12-27.86 9.38-.25v-3.5" class="e"/><path d="M768.57 361.38l-40.88 41.25v47.4l3.2-.03.2-45.87 39.6-40.5-2.3-2.25" class="e"/><path d="M747.82 364.24v9.1l-25.75 25.54.62 51.12 3.3.04-.6-49.67L750.5 376v-11.76h-2.75" class="e"/><path d="M781.32 339.5h-42.88l-63.87 64V432h6.37l.63-25.98 59.87-59.9 39.88-.24v-6.38" class="e"/><path d="M654.32 424.13v-20.5l84.37-84.38h46.2L799.4 305l2.14 3-14.63 14.5-46-.12-82.8 82.87-.1 19.63-3.6-.75" class="e"/><path d="M845.82 174.88v5.88l-35.13 35.62-.5 64.3-27.9 28.23h-45.6l-91.4 91v50.2h3.8l-.2-48.5 89.1-88.7 44.7-.2 30.4-30.2.5-64.7 35-35v-8.5l-3 .8" class="e"/><path d="M828.57 181.63V189l-26 25.75v64.08l-23.13 23.3h-42.87l-.75 3.62h44.5l25.5-25.08V216.5l26.62-26v-8.87h-3.87M621.07 428h7.75l9.12 8.88V450l3.5.04v-15.8l-10.18-10.36h-10.2V428m3 17h-24.62l-8.62-9.12H547.2l-9.13 8.75-10 .37-8.83-9.12h-4.92V432h7.37l8.6 9.13 6.3-.25 8.2-8.14 48.2-.1 8.1 9 24-.14-1.3 3.5m-87.2-14.12h57.5l17-17H624l-.63-4.13h-13.3l-17.63 17.5-55.6-.25v3.88" class="e"/><path d="M527.57 418h62.75l16.62-16.75h32l74.38-73.92v-10.45h-3.5v7.87l-72.38 72.38-33-.25-16.7 17.37h-60.17V418" class="e"/><path d="M559.07 384.75h65l51.75-51.87h9.75v-4.13h-10.5l-52.75 52.13-63.76.12.5 3.75M.2 355.75h526.37v3.5H.2zm-.13-7.37v3.88h526.5v-3.87z" class="e"/><path d="M.07 341.9a24.68 24.68 0 0 0 0 3.67h526.5v-3.66zm0-6.02h526.5v3.63H.07zm0-7.13c.1 1.37.15 2.74.13 4.13h526.37v-4.12zm538 27h18L600.82 311h6.5v3.88l-4.75-.13-44 44.5h-20.5v-3.5" class="b"/><path d="M538.07 352.25h19.5l48.12-49h8.8l8.1 7.75 3.1-3.5-9-8.5h-12l2.5-3.12h14.4l.3-3.75h-16.1l1.4-2.38h7.6l8.5-9-3-2.34-7.2 7.7h-7.4l-48.6 49.8H538v3.7h19.87l-1.63 2.4H538v3.7h18.87l-2.02 2.8h-17.6l.76 3.9" class="b"/><path d="M538.07 332.88h18.87l50.38-50.47-2.75-2.7-48.5 49.1h-18v4.2m58.87 10.9h16.3l61.16-60.2 2.17 2.6-62.25 61.5h-17.38V344m-67.74-72v-7.76L539.94 254h4.88v3.34l3.87-.13V254h134.7l41.8-42h17.4v-3.65h-20.1l-40.9 41.4-143.6-.15-12.5 13v9.4h3.6" class="b"/><path d="M515.16 271.2h.66l22.25-23.13H679.4l38.67-38.25v-16.25l35.5-34.75h54.83l4.8 4.13 3.2-2.88-5.7-5.62h-60.14l-36.74 36.87.5 17-36.13 35.44-141.4.3-21.5 23h-.3l.1 4.14" class="b"/><path d="M551.7 262.88h135.87l31.87-32.25h23.25v-4h-24.8L685.2 259l-134.47.13.96 3.75m-16.5-26h69.1L617.7 223h40.74v-3.1H615.7l1.87-2.23h30.25l7.75-7.92h16.5v-4.25H653.2l-7.26 8-30.75-.12-13.2 14.37h-53.6L538 217.67l-2.38 3.52 10.62 10.3h56.6l-1 1.4H534.5l.67 3.8m.87-49.6l14-14h12.87l13.3 14h136.6l34.1-35.1h86.9l6.1 6 7.1-.4V154l-6.1.38-5.4-6.04H745l-34.13 34.4-132 .14-14.13-13.75h-16.2l-14.7 15.45 2.1 2.67" class="b"/><path d="M537.56 167.8h29.5l13.13 13.58h127.6l36.7-36.14h132.1L876 141H742.2l-36.76 37.13H582.82l-14.25-14.5H537l.56 4.16" class="b"/><path d="M514.57 150.38v4h55.37l11 10.62h85.3l14.7-14.87h13.63v-4.38h-15.75l-16.25 16.16H582.7l-11.26-11.6-56.87.2" class="b"/><path d="M555.57 143.63h13.63l16.63 16.5s66 .38 66 0 13.5-14.37 13.5-14.37l-2.37-2.12-13.4 13.36h-62l-17-17.12h-15.5zm-40.4-7.5h15.77l14.25-14h122.3l16.1 16.37h145.2l9.5-10.1h9v-2.77h-11.8l-9.2 9.5-140.6.25-16.9-17.25H543.2l-13.8 14.12-14.83.13.6 3.75" class="b"/><path d="M533.9 116.13h136.8l18 17.5h129.6l15.4-16.47-2.65-2.08-14.67 15.05-125.66.12-18.05-18h-110.3l-.57-2.84 1.37-1.9H672.3l18.42 19.2h78.2l6.13-6.7 20.33-.1v-3.5l-21.83-.1-7.38 8.2-72.38-.1-20-19.9H563.3l-3.4 4.9-3.5 1-.1 2.5-22.44-.12v3.66m.04-25h12.92l15.58-15.7h89.54l8.38 7.8 2.87-2.3-9.7-9.5h-92.3l-16.8 15.8-10.6-.12v4" class="b"/><path d="M515.16 68H664.2l39.86 40h108.88l19.25-20h20.3v-4.5l-21.5-.25-20 21H705.2l-39.88-40H515.16V68m0-29.87h11.9v2.53h4.5v-2.53h23l11.38 11.25h49.96v-5.06h-48.33L557.32 33.5h-42.16v4.63" class="b"/><path d="M533.9 46.9h12.67l14.5 14.6h109l37.5 38.25H807.9l21.42-21.5-3.38-2.75-19.87 20.38H762.2l-.13-3.25h-3.13l.13 3.37-49.25.13-38.25-38.25L562.4 58l-14.96-14.75h-14.38l.83 3.66" class="b"/><path d="M715.74 87.13l-81.92-82h-41.25L587.5 0h-6.68l9.13 9.5h42.25l80.25 80.75h44v-2.87z" class="b"/><path d="M642.7 36.44v-8.06l-13.13-12.63h-42.13L571.34 0h5.73l12.5 12.13h42L645.82 26l.5 10.44h-3.63M635.7 0h6.04l76.5 77h37l22.5-22.75h21.5l.92 3.63L779 58l-22.67 22.63h-40.1L635.8 0" class="b"/><path d="M699.57 46.42v9.32l19.37 19h35.25l23.3-22.66h18.2l8.4-8.83H839l-1.5-4.5h-34.8l-9.13 9.5-17.75-.25-23.25 23.5H720.7l-18.63-18.12v-8.3l-2.5 1.34M769.6.04l24.1 23.88h29.24v-3.67H795.7L774.7 0l-5.1.04m128.97 86.1l10.33-9.64.54-37.75-38.37-37.37V.04h4.75l36.75 36.04v42.17L901.23 89.4l-2.66-3.27" class="b"/><path d="M913.2 86.13l11.12-12.05V38L885.7.13h6.12l35.87 35.95V75.5l-12 12.75-2.5-2.12m21.5 4.6V0l2.8.13v90.6h-2.9m10.1-29.85V.04h2.8v48.1h3.4v3.94h-3.2v9.55l-3.2-.75m8.9-14.3V.04h3.4v46.54l2 2.92h3V.13h4.3l.7 71.37-11.36 10.58.23 6.17h-3.5v-8.17l11-10.5-.86-16.95-3.76-.55-2-3.58-3.12-1.92M977.4.13V51.4h3.5V0l-3.5.13m4.9-.1v17.2l6.6 6.4 2.1-2.55-5.73-5.95V.03h-3m11.35.1h3.15v4.6h-3.14zm15.36 0h3.4v8.95H1009zM999.6 36L1034.82.13h114.12l-2.87 4.47-104.88.14-37.4 36.34-4.3-5.08" class="b"/><path d="M1088.2 8.5h5.37v19.25h-6.5V8.5h1.12m11.2 0h5.4v19.25h-6.5V8.5h1.1m10.1 0h5.3v19.25h-6.5V8.5h1.1m10.1 0h5.3v19.25h-6.5V8.5h1.1m11.2 0h5.4v19.25h-6.5V8.5h1.1m10.8 0h5.34v19.25h-6.5V8.5h1.15m9.5 0h5.4v19.25h-6.5V8.5h1.14m11 0h5.36v19.25h-6.5V8.5h1.16m10.27 0h5.3v19.25h-6.5V8.5h1.1m26.1-1h22.88l7.5-7.5h-5.7l-4 3.88-20.35.04-.13 3.58m.1 13.88h25l19.3 19.7h29.4l24.55-24.2V0l4 .13v18.62l-26.24 26.5h-33.4l-21.5-21.04h-21.25v-2.8M980.2 79.5l58.58-58.4h29.5v2.56h-28.45l-58.4 57.87-1.2-2" class="b"/><path d="M988.2 121.63l61.5-61.13 158.12.38 20 19.87 60.37.5L1337.9 31V0l3 .13v33.12l-51.12 51.63-63 .12-21-21.12-154.74.25-44.66 44.5 1.42 1.78-2.13 3.1-2.65-2-12.34 12.4-2.53-2.2" class="b"/><path d="M1012.32 111.42l42.62-42.04 150-.13 34.25 34.38 31.2.25v3.37l-31.7.13-36-34.38-146.3-.5-17.5 17.83 1.1.8L1056.4 75l146.54.13 43.5 43.12h11.95l.8 2.75h-15.7l-42.7-42.25-143.3-.25-29.7 28.88-.3 20.5-18.5 18.75h-18v-3.75l17.6-.13 15.72-16-.1-20.62 2-2.25-1.03-.8-11.76 11.17-1.4-2.83" class="b"/><path d="M1087.06 90.88h76.76l27.37 27 2.6-2.25-29.3-29.13H1087v4.38m-35 8l-2.92 3.3L1052 104l2.5-3.43 3.9.87 20.4 19.94h77.24v-3.5h-75.88l-19.5-19-3.4 1.25-5.25-1.25" class="b"/><path d="M1052.74 107.94h4.83l18.87 18.8h71l7.88 7.76 2.5-2.62-9.38-9.13h-71l-18.5-18.5h-7.86l1.66 3.7m-21.8 48.8h21.8l9.45 8.88h21.2l13.2 12.12h85.4v-4l-83.2.13-11.9-12.13-22.5.13-9.3-9.88h-24.4v4.75m19.8 58V237l-9.4 8.5-.1 96.06 11.25 11v51.52h3.16v-53.2l-10.8-10.38-.1-92.87 9.37-8.88-.37-24h-3" class="b"/><path d="M1065.44 220.33v23.17l-16.3 16-.07 78.5 8.75 8.13-.13 49.54 14 13.2 1.8-1.74-12.3-11.46V346l-9.2-8.75v-76l16.3-15.87-.2-26.06-3 1" class="b"/><path d="M1033.07 422.68h101.12l7.7-7.6V398l-10.4-10.1 2.6-2.52 11.2 10.75v20.5l-9.9 9.7H1033v-3.65" class="b"/><path d="M1018.57 450l20.75-20.5h101l9.5-9.25V376l-24.13-23.25-.3-72.75-4.8-4.33-.4-21h3l.5 18.96 4.7 5.04.1 72.2 23.7 23.38 1.2-.87-23-22.88-.3-80.5 3 .13v78.75l23.32 22.87v55.82L1147 437h-102l-12.83 13.04h-5.06l16.2-16.8-2.1-.1-16.8 16.86h-5.9m140.6 0v-45l10.3-10.5-1.9-1.62 2.6-3.13 2.6 1.82 5.66-5.44V302l42.9-43 .1-107h4.1l-.76 108.5L1182 303l-.62 83.9-18.74 18.96V450H1159" class="b"/><path d="M1163.2 384.24v-7.83l-27.63-27.5-.18-70.6 5.4-4.8.2-19 3.1.4-.4 21.1-4.3 4.2-.4 66.1 27.7 28.4v9.3l-3.8.5m5.2 65.8v-45.9l19.7-18.7.2-84.46 42.8-43.3.73-121.54h3.1v96.4l2.66.4v3.6h-3l.1 10.5h2.8v3.7h-2.6v8.6l-43.7 43.7.1 83.9-19 18.8-.4 44.18h-3.5" class="b"/><path d="M1176.32 450l.75-45 19.62-19.62.2-84.32 42-41.93v-7.22h4v8.5l-43 42.6.1 83.4-20 20.2-.3 43.4h-3.5m66.6-211.2l10.1 9.5.8 130.8 21.5 21.9 1 .8V424h3v-24.7l-23.2-23.28.1-129.9-11.4-10-2 2.77" class="b"/><path d="M1242.94 275.8V379l19.25 19 .7 7.86h3.4v-9.36l-19.8-19.12-.1-101.98-3.6.4m-12.6 15.2v11.25l-4.9 5v34.4h3.9l.2-33.15 4.3-3.93V290.1l-3.6.9" class="b"/><path d="M1215.57 305.25v45.7l12.75 12.46v39.5h3.37v-40.4l-13.3-12.7.6-45.1-3.5.7m0 72.3v33.7l12.4 12.7v26h3.6l.1-10.3h3l-1-5.22h-2.1v-12.7l-12.8-12.55.3-32.74-3.77 1.1" class="b"/><path d="M1206.2 392.5v20.13l12.24 11.75v25.66l3.88-.04v-27.75l-12.7-12-.55-17.75h-2.88m100.3 44.25h-42l-10.7-11.24-3 2 12.7 12.9h41l5.5 5.4v2.2l-6.2-6H1261l-7.3-7.1h-11l-.86 3.2h9.5l8.14 7.5 41-.3 4.83 5c8.5-.4 8.5-.1 8.5-.1v-5.7zm2.1-72.62v21.75l10.8 10.75V450h3.5v-55.62l-10.7-10.75-.1-20.22-3.7.8m21.1-8.9l.5 65.3h3.1v-65.7l-3.67.4m15.85-42H1920v3.5h-574.4z" class="b"/><path d="M1342.32 450.13l-.42-105-24.08-23.75v-63l15.12-14.38v-65.62l-15.12-14.5v-17.63h3.87l-.4 15.88 15.3 14.5.2 69.12-15 14.25.4 59.25 4 4.25.1-64.12 14.6-14.25.2-17.13 5.7-5.62v-27.13l3.5-.12V225l-5.8 5.4-.2 16.35-14.5 14.38-.14 59.75 23 23.37v105.88h-2.8l-.38-102.22-3.5-4-.5 106.1-3.5.2" class="f"/><path d="M1308.7 333.63v-45.75h-3.96v-5.1h3.95v-65.4l-17.4-15.88v-62.62l12.8-12.75-.3-13.9h4v15.27l-13.7 13.5v56.5l17.5 17.25v118.88h-3" class="b"/><path d="M1299.7 280.63V222l-21.38-20.5v-62.62l13-12.75v-25.38l64.87-65.25h1.7v3.88h-1.5L1295 102l.25 25.5-13.88 12.88.74 59.62 20.5 20.13-.3 60.5h-2.7" class="b"/><path d="M1287.2 292.08V232.5l-18-17.75V141.6h3.74V213l17.88 17.4v61.68h-3.63m56-207.83l-13 13.65v51.48l12.5 11.75 2.3-2.05-11.5-10.7V99.63l12.8-13.8-3.2-1.58" class="b"/><path d="M1318.7 112.24v-28.6l32.24-32.14h7v3.48l-4.87.15-31.5 31.1-.25 26.6-2.63-.6m-60.3-19.98h29.3l59.5-59V0l3.7.13v34.12l-61 61.63h-31.3l-.3-3.63m87.4 206.68H1920v3.48h-574.2zm.5-15.76h573.9v3.48h-573.9zm-.5-15.24H1920v3.48h-574.1zM1920 51.5h-562.1V55h562.13v-3.5zm0-16h-562.1v3.88h562.13c0-1.94.06-2.3 0-3.88zM.08 267.07c0 1.37.07 2.75 0 4.13h515.2v-4.12zm.12-116.7a40 40 0 0 0-.18 4H516v-4zm0-18c0 1.24-.18 2.42-.18 3.73h516v-3.74zm0-68.12C0 65.45 0 66.8 0 68h518v-3.75zM0 33.5v4.63h518V33.5zM.2 432c0 .5-.07 3.07 0 3.83h516V432z" class="b"/><path d="M1278.32 0a20.88 20.88 0 0 1-20.88 20.88A20.88 20.88 0 0 1 1236.56 0" class="d"/><path d="M838.53.04h4.54v2.58h-4.54zm23.83 5.76l-3.2-2.96V.04h-4.55V5.8l5.3 4.37M912 5.1V.14h3.4V5.4l-3.4-.3" class="b"/></svg>